# xmcd
#
# Track frame offsets: 
#        150
#        15045
#        34896
#        43362
#        60050
#        71224
#        85963
#        98635
#
# Disc length: 1446 seconds
#
# Revision: 0
# Processed by: cddbd v1.5.2PL0 Copyright (c) Steve Scherf et al.
# Submitted via: ExactAudioCopy v0.95b3
#
DISCID=5b05a408
DTITLE=MARTY ROBBINS - More greatest hits
DYEAR=2000
DGENRE=Country
TTITLE0=Ride,cowboy ride
TTITLE1=El Paso
TTITLE2=A Time and place for everything
TTITLE3=Ballad of the allamo
TTITLE4=Like all the other times
TTITLE5=Don´t worry
TTITLE6=Streets of Laredo
TTITLE7=Is there any chance
EXTD=
EXTT0=
EXTT1=
EXTT2=
EXTT3=
EXTT4=
EXTT5=
EXTT6=
EXTT7=
PLAYORDER=
